Patient4_TMGait_0pt3_03_right_29_EMG.mot
version=1
nRows=37
nColumns=33
inDegrees=no
endheader
time	1LAddLong	2LGlutMax	3LGlutMed	4LIliopsoas	5LSemiMemb	6LBicFemLong	7LRecFem	8LVastMed	9LVastLat	10LGasMed	11LTibAnt	12lTibPost	13LPeroneusLong	14LSol	15LExtDigLong	16LFlexDigLong	17RAddLong	18RGlutMax	19RGlutMed	20RIliopsoas	21RSemiMemb	22RBicFemLong	23RRecFem	24RVastMed	25RVastLat	26RGasMed	27RTibAnt	28RTibPost	29RPeroneusLong	30RSol	31RExtDigLong	32RFlexDigLong
54.77	-0.022888	-0.44754	-0.000763	0.005341	0.000153	0.009918	0.00412	0.002747	0.001984	0.006714	-0.12283	0.00473	0.024719	-0.27725	0.01358	0.006104	0.069427	0.7756	-0.088654	-0.024872	-0.068054	-0.1889	0.067291	0.2832	-0.042114	0.011902	-0.3775	-0.015106	0.070801	0.14633	0.005341	-0.003052
54.771	-0.004272	-0.42725	0.017853	0.015564	0.01297	0.026093	-0.021362	0.003204	0.010223	0.01358	-0.1181	0.003662	0.013733	-0.24262	0.086517	0.007324	0.10559	0.6691	-0.63431	0.008392	-0.045013	-0.14206	0.010223	0.30319	0.036316	0.00412	-0.048676	-0.019226	0.052948	0.087433	0.005035	-0.006714
54.772	-0.003052	-0.47836	-0.007935	0.020905	0.015411	0.044861	-0.001221	-0.001068	0.027161	0.005035	-0.06134	-0.001373	-0.014801	-0.20233	0.093842	0.007629	0.1326	0.54672	-0.82611	0.016022	-0.00061	-0.103	0.08194	0.83588	0.042725	-0.007019	0.3331	-0.019226	0.055542	0.086365	0.004425	-0.003357
54.773	0.011597	-0.49561	-0.059204	0.016785	0.007629	0.044708	-0.009003	-0.001221	0.037994	0.029755	-0.008698	0.007782	-0.03418	-0.090485	0.14801	0.003967	0.12878	0.31845	-0.78995	0.037537	0.19226	-0.068054	0.12741	0.74921	0.009003	-0.01709	0.35965	-0.016937	-0.30838	0.007629	0.00351	-0.009613
54.774	0.002136	-0.54474	-0.067902	0.011902	0.005188	-0.006256	0.01297	-0.002289	0.053558	0.046997	0.072632	0.001831	-0.066833	-0.1384	0.20767	0.007782	0.032654	0.11673	-0.69885	0.028839	0.20218	-0.020447	-0.018768	0.21835	0.007324	-0.017853	-0.031586	-0.002899	-0.64545	-0.014038	0.007172	-0.005493
54.775	0.00824	-0.58075	-0.03418	0.019379	-0.001526	-0.054626	0.012817	0.001678	0.066223	0.028534	0.066986	0.006866	-0.057373	-0.215	0.22156	0.015106	-0.10529	-0.21271	-0.99655	0.008392	0.040436	-0.18219	-0.083466	-0.19501	0.13184	-0.026398	-0.16617	0.00061	-0.16525	0.072021	0.007324	-0.014191
54.776	-0.004578	-0.54504	0.009155	0.000153	0.005646	-0.058136	0.014801	-0.000763	0.061188	0.016479	0.047302	0.010834	-0.066223	-0.16754	0.25803	0.005035	-0.12192	-0.42526	-0.80063	-0.00946	-0.25803	-0.1178	-0.026093	-0.46921	0.46097	-0.050201	-0.12878	-0.009613	0.93979	0.1886	0.007324	-0.013885
54.777	0.001984	-0.63828	-0.005493	-0.010681	0.010529	-0.058899	0	-0.003357	0.06897	0.011139	-0.028229	0.006561	-0.065765	-0.11337	0.24994	0.000153	-0.093079	-0.55847	-0.57907	-0.017548	-0.089111	-0.03067	-0.024414	-0.68649	0.46295	-0.055847	-0.067596	-0.020447	0.47501	0.15121	0.006256	-0.013123
54.778	-0.003357	-0.63919	0.013733	-0.000763	0.016479	-0.05661	0.000153	-0.007172	0.066071	-0.005493	0.016327	0.015564	-0.03479	-0.036621	0.23056	0.000763	-0.07019	-0.63065	-0.29266	-0.009766	-0.011292	0.021362	0.095062	-0.63248	0.62561	-0.020142	-0.028381	-0.026398	0.053253	0.061493	0.004578	-0.015717
54.779	-0.000305	-0.63583	0.026245	-0.02655	0.022278	-0.008698	-0.000763	0.000305	0.066986	0.016632	0.018616	0.011597	-0.06485	-0.038757	0.19821	-0.003967	-0.025482	-0.74005	-0.49835	0.078125	-0.057983	-0.12711	0.062561	-0.4039	0.76477	-0.056458	-0.002594	-0.027008	0.13168	-0.10468	0.005646	-0.013428
54.78	0.005493	-0.67123	0.030823	-0.027771	0.010986	0.041046	-0.02594	-0.003662	0.059052	0.013275	0.043793	0.001526	-0.05722	-0.045929	0.17502	0.003052	-0.027771	-0.86548	-0.27695	0.075836	-0.15732	-0.079041	0.009918	-0.1622	0.57754	-0.006256	0.02533	-0.004883	-0.038605	-0.19638	0.005493	-0.011139
54.781	0.005188	-0.70755	0.010071	-0.005798	0.010834	0.026398	0.004272	-0.007324	0.055237	0.005035	-0.057526	0.009308	-0.068359	-0.049896	0.21927	-0.002899	-0.023193	-0.99197	-1.1691	0.059357	-0.27466	0.036316	0.09964	-0.062103	0.12268	0.067139	0.10208	0.030823	-0.26596	-0.2002	0.003204	-0.007935
54.782	0.007172	-0.7193	0.028534	0.006714	0.020599	-0.023041	-0.007629	0.005035	0.059967	0.00351	-0.11078	0.008087	-0.070343	-0.033264	0.1767	-0.003967	-0.03006	-0.88852	-0.65475	0.012817	-0.21957	0.070801	0.25925	0.15411	-0.36652	0.050659	0.19348	0.029755	-0.21774	-0.089874	0.006866	-0.011597
54.783	0.009308	-0.69488	-0.030212	0.025635	0.023499	-0.020142	-0.03067	0.005035	0.064697	0.016937	-0.080109	0.004578	-0.088959	-0.021973	0.24719	-0.00946	-0.011597	-0.65613	0.51682	-0.001831	-0.11459	0.16815	0.15549	0.392	-0.5159	0.007782	0.3215	0.001526	-0.12482	-0.005341	0.002594	-0.007477
54.784	0.005188	-0.67856	-0.007782	0.00885	0.017548	-0.002899	-0.026245	0.007324	0.066681	0.005951	0.067902	0.006104	-0.066986	0.038452	-0.016022	0.002899	0.023651	-0.62836	0.44571	-0.096588	0.18692	0.12955	0.20813	0.336	-0.83221	0.016937	0.57892	-0.002899	-0.030518	0.089722	0.003052	-0.014954
54.785	0.007477	-0.66742	-0.004883	-0.009613	0.017242	-0.015564	-0.014954	-0.000458	0.06134	0.005188	0.23865	0.011597	-0.017395	0.042419	-0.042725	-0.003967	0.037689	-0.47409	0.42664	-0.13763	0.14358	0.078125	0.30792	0.23361	-1.0051	0.03418	0.45609	-0.037537	-0.26535	-0.057068	0.003815	-0.021515
54.786	-0.00412	-0.68131	-0.01297	-0.017395	0.00412	0.011444	-0.008545	0.005188	0.056	-0.013123	0.20783	0.005646	0.038757	0.059052	-0.16968	-0.005188	0.024261	-0.46646	1.2527	-0.14084	-0.09964	-0.033264	0.30426	-0.23529	-0.7666	0.017242	0.28793	-0.18814	-0.28961	-0.20538	0.001678	-0.019379
54.787	-0.002289	-0.66452	0.027771	-0.028992	-0.018921	-0.013733	0.014038	0.008087	0.037384	-0.031891	0.20096	0.003357	0.022888	0.091858	-0.024109	-0.00885	-0.056152	-0.54916	0.85602	-0.056305	-0.22522	0.066071	0.19623	-0.57175	-0.39887	0.00885	-0.007629	0.072479	0.039368	-0.41672	-0.002136	-0.02121
54.788	-0.017395	-0.63263	0.000458	0.001526	-0.019531	0.004272	-0.003662	0.005341	0.049438	-0.048218	-0.28	0.002594	0.046082	0.093994	0.31723	-0.002899	-0.050354	-0.63141	0.37491	-0.080872	-0.13718	0.066528	-0.19134	-0.70084	0.005798	-0.01358	-0.34027	0.12009	0.24582	-0.81406	0.000763	-0.020905
54.789	-0.006409	-0.57968	-0.018768	-0.006104	-0.033875	-0.044098	-0.009918	0.003967	0.058136	0.010681	-0.14755	0.005951	-0.12466	0.08606	0.28351	0.009308	-0.025482	-0.64911	-0.00824	0.010529	-0.19394	0.014038	-0.26932	-0.52078	0.064697	-0.005798	-0.66849	0.024109	0.2272	-1.0608	0.001221	-0.020752
54.79	-0.012207	-0.59296	-0.024109	0.002136	-0.017242	-0.1413	-0.000763	-0.001221	0.046387	0.02594	0.14069	0.005188	-0.16464	0.014801	0.032806	-0.002594	-0.020142	-0.6282	-0.4805	0.10437	-0.22751	-0.020447	-0.005493	-0.38986	0.009918	-0.000305	-0.067749	-0.000763	-0.03418	-0.89157	-0.004883	-0.014954
54.791	-0.006714	-0.57129	-0.03067	0.013428	0.009613	-0.1059	0.02655	0.006714	0.045013	-0.023956	0.32761	0.000763	-0.10132	0.08316	0.22278	-0.001526	-0.010529	-0.65369	-0.71686	0.24017	-0.12863	-0.007629	-0.069885	-0.4866	-0.027466	-0.031586	-0.083618	-0.014954	-0.058441	-0.23743	0.000153	-0.010071
54.792	-0.003357	-0.53772	-0.042419	0.019226	0.018158	-0.038147	0.023956	0.006866	0.045013	0.031128	0.089722	0.007629	-0.088501	0.13275	1.2689	-0.002899	0.010529	-0.53558	-0.53436	0.11719	0.072021	-0.021362	-0.046844	-0.64575	-0.085754	-0.028992	-1.0693	-0.028534	0.11215	0.51636	-0.000916	-0.003052
54.793	-0.003052	-0.48538	-0.02533	0.00412	0.018616	-0.06073	0.017853	0.003204	0.058136	0.00473	-0.13687	0.004425	-0.018311	0.15106	0.22736	-0.010376	0.015106	-0.44952	0.31342	0.085144	0.1001	-0.033112	-0.068054	-0.43533	0.39169	-0.030975	-0.95001	-0.070038	0.32913	0.77606	0.003204	-0.010681
54.794	-0.001984	-0.43976	-0.006714	-0.002136	0.032043	-0.045319	0.017548	0.005646	0.055389	0.014038	-0.019836	0.003204	-0.003204	0.09613	-0.55649	-0.00473	0.010834	-0.36957	0.74799	0.003204	0.002747	0.06546	-0.13412	-0.093231	0.78507	0.030823	-0.27557	-0.046539	0.53574	0.4773	0	-0.005188
54.795	0.002747	-0.43732	-0.019073	-0.007935	0.036011	0.056458	0.01297	0.007019	0.062408	-0.017548	-0.032349	0.002899	-0.012054	0.11032	-0.6839	-0.005188	0.012512	-0.37552	0.35919	0.003052	0.007629	0.12512	-0.078278	-0.006866	0.59174	0.068817	-0.010223	0.058594	0.27374	-0.16174	-0.002747	-0.00885
54.796	0.011444	-0.40543	0.01358	-0.000763	0.024109	0.13992	-0.001068	0.003815	0.049286	-0.078735	0.05188	0.002136	0.016022	0.21851	-0.41336	-0.01358	0.013428	-0.34698	0.41046	0.018921	-0.008545	-0.014954	-0.20691	0.097046	0.30365	0.041046	-0.02243	0.018616	0.16892	-0.39642	0.002594	-0.008392
54.797	-0.001831	-0.36697	0.017548	0.016937	-0.000458	0.11063	0.015869	0.006714	0.045013	-0.087891	0.012512	0.004883	0.038147	0.1889	-0.34424	-0.007782	0.034637	-0.41077	-0.039063	0.038147	-0.052795	-0.13672	-0.13153	0.092468	0.059052	-0.001831	0.004272	-0.024261	0.005798	-0.15595	0	-0.014954
54.798	-0.000153	-0.36362	-0.00351	0.028992	-0.000305	0.059509	0.017853	0.010681	0.046844	-0.027161	0.020599	0.010223	0.041656	0.012054	-0.10681	-0.005493	0.028687	-0.42053	-0.043182	0.039978	-0.10788	-0.27161	0.02594	-0.071716	-0.22568	-0.014496	0.1152	-0.027771	-0.17899	0.15686	-0.001526	-0.009918
54.799	0.001678	-0.34256	-0.031281	0.000763	0.000763	0.050354	-0.007172	0.00946	0.046539	-0.024109	-0.11429	0.006409	0.041046	-0.009766	-0.016174	-0.00351	0.036469	-0.45319	0.47257	0.018158	-0.055847	-0.20401	0.15015	-0.059967	-0.48584	-0.014343	0.32288	0.002136	-0.34882	0.49744	-0.002136	-0.010376
54.8	-0.004883	-0.27802	0.015869	0.008698	0.009155	0.057373	-0.04425	0.009003	0.072327	-0.064087	-0.21515	0.005951	0.030823	-0.054779	-0.29404	-0.016479	0.018463	-0.43793	1.2553	-0.002747	0.012054	0.14618	0.22766	-0.027924	-0.38223	0.002136	0.43488	0.039063	-0.35675	0.45227	-0.000305	-0.0177
54.801	-0.034943	-0.23163	-0.001526	0.004272	0.026703	0.082397	-0.031281	0.01236	0.06897	-0.03418	-0.25604	0.007629	-0.020905	-0.05249	-0.36468	-0.018616	0.023041	-0.31479	1.1768	-0.040131	0.017395	0.38162	0.16296	0.021057	-0.075836	-0.008087	0.29587	0.010834	0.12238	0.42801	0.001068	-0.010071
54.802	-0.041809	-0.22003	-0.030518	-0.018158	0.018005	0.057983	-0.023956	0.003662	0.061646	-0.00473	-0.19409	-0.001984	-0.033417	-0.10468	-0.50079	-0.03067	0.009766	-0.40497	0.40192	-0.033112	-0.11887	0.37415	-0.014801	0.19241	0.040588	-0.014496	0.12726	-0.077209	0.46982	0.49484	0.001984	-0.014496
54.803	0.033875	-0.17838	-0.039673	-0.011444	-0.009918	-0.039215	-0.035858	-0.006104	0.080109	0.029297	-0.093079	0.006866	-0.045624	-0.17517	-0.36575	-0.024261	0.001221	-0.44083	0.46814	-0.002289	-0.20294	0.29083	-0.051422	0.30716	0.10803	-0.007019	-0.43381	0.013733	0.35629	0.48767	0.002289	-0.003662
54.804	-0.026398	-0.13107	-0.034027	0.012817	-0.019989	-0.098114	-0.009918	-0.001678	0.066376	0.037384	-0.041962	-0.001373	-0.038147	-0.40253	0.093689	-0.005035	0.002136	-0.4953	0.26138	0.016785	-0.061188	0.112	0.10956	0.1239	-0.006409	0.005493	-0.33218	-0.007172	0.010071	0.12772	-0.000305	0.000763
54.805	-0.011292	-0.13351	-0.023499	0.000763	-0.012665	-0.097351	0.000305	-0.00946	0.077667	0.024567	-0.037079	0.005341	-0.00824	-0.30624	0.3125	-0.00885	0.036316	-0.5397	0.46493	-0.033112	0.086517	-0.035248	0.20737	0.071564	-0.03006	0.007782	-0.18692	-0.014191	0.007629	-0.093994	0.001984	-0.007019
54.806	-0.012054	-0.028992	0.010834	0.008392	0.006409	-0.10025	0.001984	-0.002594	0.071106	0.024109	0.031281	0.005951	-0.015259	-0.11978	0.21515	-0.023804	0.017548	-0.66574	0.28107	-0.020752	0.032959	0.006866	0.059662	0.03418	0.042267	0.018616	-0.2887	0.036316	0.26077	0.023956	0.00351	0.002136
